<svg xmlns="http://www.w3.org/2000/svg" width="96" height="96" fill="none"><path fill="#fff" fill-rule="evenodd" d="M84.414 58.174a5.775 5.775 0 0 0-3.12-5.134A5.774 5.774 0 0 0 85 47.644c0-3.18-2.569-5.767-5.726-5.767H59.959l-1.81-.078 4.151-4.183c2.78-3.324 3.761-4.834 4.898-8.43 1.933-6.109.116-11.765-4.321-13.45-1.717-.652-3.042-.718-3.097-.721L59.43 15l-.134.327c-.022.056-2.275 5.618-3.248 7.676-1.05 2.22-2.323 3.763-3.526 5.082L33.15 47.075a.506.506 0 0 0-.009.71.496.496 0 0 0 .704.01l19.392-19.012c1.273-1.396 2.605-3.011 3.71-5.349.855-1.807 2.618-6.12 3.131-7.382.471.06 1.38.217 2.447.623 3.86 1.466 5.462 6.713 3.724 12.206-1.093 3.458-1.987 4.832-4.682 8.058l-5.723 5.763 4.094.178h19.336c2.608 0 4.73 2.137 4.73 4.764 0 2.626-2.122 4.763-4.73 4.763H67.149c-.275 0-.498.225-.498.502s.223.501.498.501h11.538c2.609 0 4.731 2.137 4.731 4.764 0 2.626-2.122 4.763-4.73 4.763h-11.54a.5.5 0 0 0-.497.502.5.5 0 0 0 .498.501h11.538c2.609 0 4.731 2.137 4.731 4.764 0 2.626-2.122 4.763-4.73 4.763h-11.54a.5.5 0 0 0-.497.502.5.5 0 0 0 .498.501h11.538c2.609 0 4.731 2.137 4.731 4.764 0 2.626-2.122 4.763-4.73 4.763h-45.03a.5.5 0 0 0-.499.502.5.5 0 0 0 .498.501h45.03c3.159 0 5.727-2.587 5.727-5.766a5.775 5.775 0 0 0-3.391-5.265 5.777 5.777 0 0 0 3.391-5.265 5.775 5.775 0 0 0-3.391-5.265 5.777 5.777 0 0 0 3.391-5.265z" clip-rule="evenodd"/><path fill="url(#paint0_linear)" fill-rule="evenodd" d="M12 90h18V42H12v48z" clip-rule="evenodd"/><defs><linearGradient id="paint0_linear" x1="-21.717" x2="28.805" y1="89.812" y2="100.065" gradientUnits="userSpaceOnUse"><stop stop-color="#C1EB4E"/><stop offset=".474" stop-color="#0FBAB2"/><stop offset=".999" stop-color="#923CFF"/></linearGradient></defs></svg>